Coordinates
version=1
nRows=23
nColumns=23
inDegrees=yes

Units are S.I. units (second, meters, Newtons, ...)
If the header above contains a line with 'inDegrees', this indicates whether rotational values are in degrees (yes) or radians (no).

endheader
time	pelvis_tilt	pelvis_list	pelvis_rotation	pelvis_tx	pelvis_ty	pelvis_tz	hip_flexion_r	hip_adduction_r	hip_rotation_r	knee_angle_r	knee_angle_r_beta	ankle_angle_r	subtalar_angle_r	mtp_angle_r	hip_flexion_l	hip_adduction_l	hip_rotation_l	knee_angle_l	knee_angle_l_beta	ankle_angle_l	subtalar_angle_l	mtp_angle_l
      7.50000000	      0.64710347	      1.05824603	      2.25305288	      2.10805965	      1.12530206	      1.05573243	    -16.58803809	     -3.67253919	    -20.80197498	     37.37162974	      0.65225799	    -13.13021567	     -8.23865153	      0.00000000	     20.09612510	      4.65920490	     -2.95806053	     16.85627656	      0.29419753	     12.00076148	      9.30782085	      0.00000000
      7.50666667	      0.94085521	      1.39649300	      2.42869450	      2.10787079	      1.12191854	      1.05522607	    -16.16058446	     -4.23396750	    -20.39762095	     40.13663363	      0.70051641	    -13.21399966	    -10.50862458	      0.00000000	     19.84571469	      4.97039192	     -3.56131887	     17.91716200	      0.31271347	     11.25256043	      8.51614778	      0.00000000
      7.51333333	      1.49891010	      1.77489755	      2.68667932	      2.10758201	      1.11843576	      1.05469192	    -15.98609301	     -4.80853519	    -20.11539530	     42.94711367	      0.74956854	    -13.16878282	    -12.38352201	      0.00000000	     19.38746319	      5.29625903	     -4.12082489	     19.32354953	      0.33725956	     10.49670954	      7.63341678	      0.00000000
      7.52000000	      1.36360734	      1.96322366	      2.79558296	      2.10681587	      1.11394610	      1.05447958	    -14.74434942	     -5.04217959	    -18.99561260	     46.03013754	      0.80337746	    -13.33997934	    -14.86205225	      0.00000000	     19.79623742	      5.41932843	     -4.50451566	     21.04503255	      0.36730511	      9.64376060	      6.44388944	      0.00000000
      7.52666667	      1.92137302	      2.37786241	      3.00952934	      2.10604172	      1.10986826	      1.05418220	    -14.32252578	     -5.54600693	    -18.38530657	     49.06054144	      0.85626798	    -13.24684119	    -16.41532390	      0.00000000	     19.45337052	      5.73969842	     -4.89919628	     22.91865731	      0.40000603	      9.03317927	      5.46315091	      0.00000000
      7.53333333	      1.63596575	      2.46935283	      3.17375404	      2.10466176	      1.10455257	      1.05411315	    -12.65913212	     -5.58228522	    -17.17493969	     52.38347858	      0.91426417	    -13.26594281	    -18.31258563	      0.00000000	     20.23319097	      5.75279122	     -5.04172321	     25.20974051	      0.43999298	      8.63784547	      4.29945227	      0.00000000
      7.54000000	      1.73171974	      2.72831628	      3.34005684	      2.10309359	      1.09944982	      1.05411143	    -11.38789675	     -5.80564393	    -16.18217657	     55.70122347	      0.97216975	    -13.12559135	    -19.57478722	      0.00000000	     20.58591535	      5.90801877	     -5.20003700	     27.54486177	      0.48074853	      8.63653835	      3.44303439	      0.00000000
      7.54666667	      1.80297979	      2.92269003	      3.53382748	      2.10119481	      1.09412040	      1.05421694	     -9.98697993	     -5.90112417	    -15.17851119	     59.05182698	      1.03064881	    -12.92052006	    -20.59490183	      0.00000000	     21.04912305	      5.98852302	     -5.27337710	     30.07073023	      0.52483325	      9.12160714	      2.82390424	      0.00000000
      7.55333333	      1.88139940	      3.15697333	      3.68573294	      2.09904937	      1.08869616	      1.05442140	     -8.49507726	     -6.03904683	    -14.18049663	     62.44307059	      1.08983718	    -12.60371659	    -21.28392787	      0.00000000	     21.49961626	      6.09661215	     -5.33833661	     32.60590869	      0.56908046	      9.95238836	      2.40149906	      0.00000000
      7.56000000	      2.02144622	      3.40717218	      3.82137921	      2.09665092	      1.08332814	      1.05472351	     -6.99161327	     -6.16440375	    -13.19419332	     65.81234627	      1.14864213	    -12.19719945	    -21.71217406	      0.00000000	     21.85676536	      6.21835566	     -5.35717845	     35.10483917	      0.61269503	     11.14219722	      2.17090783	      0.00000000
      7.56666667	      2.18904902	      3.62700428	      3.94444490	      2.09411663	      1.07803708	      1.05510858	     -5.45751103	     -6.21823813	    -12.21210289	     69.11135911	      1.20622077	    -11.70471801	    -21.97349648	      0.00000000	     22.14070535	      6.27623639	     -5.41114379	     37.54032434	      0.65520226	     12.60103656	      2.21292147	      0.00000000
      7.57333333	      2.43277315	      3.90953858	      4.02435257	      2.09149887	      1.07299956	      1.05557063	     -3.95644910	     -6.33748426	    -11.25099917	     72.33456051	      1.26247624	    -11.10485015	    -22.00149953	      0.00000000	     22.22353692	      6.38943013	     -5.47647814	     39.77629223	      0.69422726	     14.19638423	      2.38379457	      0.00000000
      7.58000000	      2.71734050	      4.23120059	      4.06707717	      2.08885363	      1.06827691	      1.05606796	     -2.46086093	     -6.48932713	    -10.29179583	     75.44202454	      1.31671172	    -10.40431467	    -21.85487713	      0.00000000	     22.11818023	      6.53247755	     -5.57046706	     41.77292351	      0.72907505	     15.87264292	      2.67631413	      0.00000000
      7.58666667	      3.02276736	      4.64936654	      4.06025305	      2.08624192	      1.06392370	      1.05655983	     -0.95659274	     -6.76371426	     -9.33677818	     78.43305877	      1.36891512	     -9.56945626	    -21.51831324	      0.00000000	     21.81190782	      6.79200284	     -5.67088723	     43.46309560	      0.75857412	     17.50420842	      2.94168204	      0.00000000
      7.59333333	      3.30782379	      5.02087802	      4.00732972	      2.08370960	      1.05994748	      1.05708935	      0.60591352	     -6.96158333	     -8.33890717	     81.25544450	      1.41817504	     -8.66564280	    -21.12170442	      0.00000000	     21.38778843	      6.97696529	     -5.84081238	     44.93066826	      0.78418810	     19.14078438	      3.36095058	      0.00000000
      7.60000000	      3.59524981	      5.48714864	      3.87125426	      2.08129163	      1.05642614	      1.05763374	      2.18986339	     -7.26909872	     -7.27840732	     83.91606644	      1.46461165	     -7.73002585	    -20.68252540	      0.00000000	     20.78047609	      7.26881119	     -6.05824735	     46.08476176	      0.80433083	     20.64287269	      3.68927817	      0.00000000
      7.60666667	      3.73419030	      5.87068369	      3.70445078	      2.07901581	      1.05322848	      1.05814170	      3.96857822	     -7.48613381	     -6.19690243	     86.39610763	      1.50789654	     -6.65431884	    -20.15313948	      0.00000000	     20.20260970	      7.46612149	     -6.33318932	     47.02546253	      0.82074915	     22.09396900	      4.18931142	      0.00000000
      7.61333333	      4.11991761	      6.24217441	      3.52628503	      2.07687071	      1.05092151	      1.05860746	      5.43234691	     -7.61711964	     -5.11488535	     88.56111299	      1.54568301	     -5.78561984	    -20.08582163	      0.00000000	     19.18808398	      7.72326953	     -6.43118445	     47.66492537	      0.83190989	     23.45104750	      4.26900757	      0.00000000
      7.62000000	      3.89602169	      6.63104284	      3.20372285	      2.07484319	      1.04824212	      1.05910097	      7.69531220	     -7.88948218	     -3.91113315	     90.72081210	      1.58337687	     -4.60339656	    -19.21709888	      0.00000000	     18.74813339	      7.89221807	     -6.95021361	     48.14930471	      0.84036390	     24.54284876	      5.02836267	      0.00000000
      7.62666667	      3.81140993	      6.86775971	      2.96235394	      2.07297728	      1.04632010	      1.05942134	      9.73108336	     -7.93031592	     -2.81358278	     92.53568251	      1.61505234	     -3.54513850	    -18.78210922	      0.00000000	     18.04903184	      7.97353286	     -7.25498701	     48.45751507	      0.84574319	     25.62969653	      5.57752397	      0.00000000
      7.63333333	      3.72076943	      7.07509852	      2.69621123	      2.07129856	      1.04496680	      1.05971851	     11.74841648	     -7.92620320	     -1.73532931	     94.08814167	      1.64214786	     -2.59753391	    -18.43646437	      0.00000000	     17.22107673	      8.05208321	     -7.53005178	     48.51354177	      0.84672104	     26.52494556	      6.05788241	      0.00000000
      7.64000000	      3.53845308	      7.18590149	      2.51892494	      2.06975071	      1.04400842	      1.05986513	     13.81679273	     -7.83686419	     -0.80005734	     95.38432854	      1.66477059	     -1.64002086	    -18.08749749	      0.00000000	     16.41150875	      8.05718370	     -7.72743949	     48.43864419	      0.84541383	     27.30392434	      6.60686016	      0.00000000
      7.64666667	      3.41446787	      7.26784221	      2.32409634	      2.06840243	      1.04368454	      1.05998570	     15.76287015	     -7.70353731	      0.09038428	     96.39195766	      1.68235703	     -0.83442809	    -17.87499127	      0.00000000	     15.40786336	      8.06295253	     -7.88397672	     48.11382414	      0.83974465	     27.86572005	      7.02556468	      0.00000000
